<?xml version="1.0" encoding="UTF-8" standalone="no"?>
<!-- Created with Inkscape (http://www.inkscape.org/) -->

<svg
   width="210mm"
   height="297mm"
   viewBox="0 0 210 297"
   version="1.1"
   id="svg1"
   xmlns="http://www.w3.org/2000/svg"
   xmlns:svg="http://www.w3.org/2000/svg">
  <defs
     id="defs1" />
  <g
     id="layer1">
    <path
       id="path119"
       d="M 87.24201,279.97491 78.498121,229.85493 C 41.429802,225.80275 19.057403,214.2609 19.624848,208.32507 c 1.063328,-3.99133 5.211701,-7.83239 13.099974,-10.76204 -10.833557,-1.20091 -14.047316,-2.33866 -12.730643,-7.29511 1.550808,-5.84571 14.383028,-10.78047 29.510482,-14.13658 C 37.943488,141.13637 36.301428,100.86059 50.299756,67.353048 l 2.942163,-7.045971 c 3.615027,5.889307 8.764292,10.417693 21.048999,19.871688 l 2.557702,1.613486 C 76.382997,54.458375 90.158237,24.874848 119.65601,15.159249 l 13.08629,-4.285443 c -12.20716,18.755569 -11.9125,42.115373 0.78524,61.664076 l 9.23616,14.221651 c 4.45407,-4.138639 13.41504,-7.47696 22.1097,-8.90746 l 4.39162,-0.555511 c -4.70429,7.857297 -4.58134,17.378569 0.32683,25.541498 11.5715,19.25137 11.85991,41.69657 0.76315,60.21746 l -4.93049,8.21433 c -24.93322,-7.15515 -63.44791,-5.58316 -88.352557,-0.52093 7.272798,-0.16161 26.951347,-0.87589 34.704907,-0.53012 47.41728,2.12291 82.38872,15.76574 79.91315,24.3226 -0.77299,2.90569 -0.74371,3.1696 -5.28758,5.54191 -14.37775,-7.68394 -40.75755,-14.59641 -67.80184,-15.8068 -25.480727,-1.14327 -64.433662,-2.01454 -74.843618,9.89032 16.034213,-2.77959 48.547625,-2.30039 68.716758,-0.75143 20.16915,1.54896 77.85134,10.53386 78.27062,23.40637 -2.58052,7.25199 -24.26876,11.79217 -54.42689,14.04598 l 1.42905,-15.97966 c -12.65596,-8.99916 -39.368605,-10.08416 -56.260118,-5.51333 l -5.610327,5.05352 c 8.153866,-2.70841 41.618455,-1.35306 53.015385,6.75826 l -4.0953,49.14818 -6.75795,-1.0972 c -9.47438,-1.03033 -14.7651,-0.046 -20.055796,2.36819 -5.290714,2.41146 -7.624608,4.97049 -10.738715,8.37013 z M 64.438321,168.6825 c 0.355885,-2.99994 -0.07447,-16.31664 0.28288,-19.31314 1.107042,-9.27162 3.141484,-19.23547 6.493805,-26.40242 l 6.436396,11.82399 c 7.828959,10.60206 22.994118,18.09449 37.725348,16.03058 -3.59725,-15.87755 -4.87623,-35.48205 0.67526,-48.50137 3.53578,9.10751 6.50557,30.19507 16.5402,40.09963 8.54456,-4.29626 11.76216,-25.80241 11.76216,-25.80241 l 4.53236,7.77753 c 2.60861,4.46963 4.71485,9.13104 6.29232,13.92428 2.2825,6.96228 3.20054,17.01231 3.12514,24.2295 3.53963,-3.52296 5.24341,-7.21649 7.5701,-11.40446 3.85709,-7.82754 5.8483,-24.22971 -0.45602,-34.23114 -6.76155,-9.27207 -8.01291,-19.836374 -7.15346,-29.462035 l -3.21256,1.032642 c -9.35239,3.52457 -15.15915,8.137578 -19.32289,14.228073 C 120.45685,82.877684 109.37669,61.852148 113.63384,30.200783 91.77389,44.351425 87.580361,84.502461 91.669906,110.85833 l -4.873589,-1.30926 C 73.021551,102.04514 64.914031,97.430537 57.407582,87.064239 47.611418,125.82148 55.033583,144.77411 64.438321,168.6825 Z"
       style="display:inline;fill:#000000;fill-rule:evenodd;stroke:#ebead9;stroke-width:0.82127;stroke-dasharray:none;stroke-opacity:1" />
  </g>
</svg>
