<?xml version="1.0" encoding="UTF-8" standalone="no"?>
<!-- Created with Inkscape (http://www.inkscape.org/) -->

<svg
   width="36"
   height="36"
   viewBox="0 0 9.525 9.525"
   version="1.1"
   id="svg1"
   xmlns="http://www.w3.org/2000/svg"
   xmlns:svg="http://www.w3.org/2000/svg">
  <defs
     id="defs1" />
  <path
     id="path119"
     d="M 4.091495,8.7139598 3.8375878,7.2585611 C 2.7611868,7.1408928 2.1115308,6.8057373 2.1280084,6.6333709 2.1588857,6.5174693 2.2793473,6.4059315 2.5084092,6.3208593 2.1938213,6.2859873 2.1004992,6.2529489 2.1387332,6.1090217 2.183766,5.9392723 2.5563918,5.7959753 2.9956673,5.6985197 2.6599503,4.6823255 2.6122675,3.5127859 3.0187551,2.5397838 l 0.085435,-0.204603 c 0.1049745,0.1710154 0.2545003,0.302512 0.6112272,0.5770396 l 0.074272,0.046853 C 3.7761678,2.1653445 4.1761773,1.3062893 5.0327424,1.0241649 L 5.4127457,0.89972301 C 5.0582707,1.4443527 5.0668274,2.1226815 5.435549,2.6903423 L 5.7037515,3.103315 C 5.8330901,2.9831358 6.0933015,2.8861966 6.3457797,2.8446575 l 0.1275251,-0.01613 C 6.3367002,3.0566899 6.3402702,3.3331715 6.4827963,3.570209 6.818813,4.129236 6.8271877,4.7810062 6.5049554,5.3188214 L 6.3617796,5.5573513 C 5.637761,5.3495783 4.5193602,5.395226 3.7961719,5.5422258 4.0073618,5.5375329 4.5787929,5.5167911 4.8039433,5.5268337 6.18086,5.5884794 7.1963712,5.984644 7.1244845,6.2331206 7.1020398,6.3174971 7.1028873,6.3251602 6.9709425,6.394048 6.5534372,6.1709203 5.7874129,5.9701933 5.0020927,5.9350457 4.262176,5.9018476 3.1310492,5.876547 2.8287619,6.2222438 3.2943678,6.1415293 4.2385019,6.1554446 4.8241795,6.2004242 5.409857,6.245403 7.0848491,6.5063094 7.0970245,6.8801051 7.02209,7.0906905 6.3923011,7.2225297 5.5165605,7.2879764 l 0.041497,-0.464022 C 5.1905514,6.5626318 4.4148615,6.5311248 3.924361,6.6638545 L 3.7614468,6.8105997 c 0.2367741,-0.078647 1.2085289,-0.03929 1.539476,0.1962485 L 5.1820024,8.4340274 4.9857632,8.4021668 C 4.7106435,8.3722474 4.5570099,8.4008326 4.403377,8.4709349 4.2497439,8.5409596 4.1819717,8.6152695 4.0915432,8.7139892 Z M 3.429315,5.4822182 C 3.439651,5.3951052 3.427145,5.0084107 3.437525,4.9213972 3.469671,4.6521654 3.528748,4.3628323 3.626094,4.1547163 L 3.8129998,4.4980645 C 4.0403395,4.8059306 4.4807097,5.0234979 4.9084793,4.9635654 4.8040212,4.5025085 4.7668821,3.9332272 4.9280885,3.5551684 5.0307614,3.8196348 5.1169991,4.4319816 5.4083876,4.7195932 5.6565073,4.594837 5.7499407,3.9703354 5.7499407,3.9703354 l 0.1316119,0.2258461 c 0.07575,0.1297906 0.1369111,0.26515 0.1827182,0.4043376 0.06628,0.2021725 0.092939,0.4940083 0.090749,0.7035831 C 6.2578044,5.2018015 6.3072792,5.0945478 6.3748425,4.9729362 6.4868458,4.7456378 6.544667,4.2693465 6.3616032,3.9789223 6.1652594,3.7096773 6.128922,3.4029075 6.1538792,3.123395 L 6.0605912,3.153381 C 5.7890143,3.2557288 5.6203958,3.3896822 5.4994882,3.5665401 5.0559979,2.9905925 4.734249,2.380047 4.8578694,1.4609454 4.2230941,1.8718559 4.101321,3.0377732 4.2200745,3.8031028 L 4.0785537,3.7650842 C 3.6785577,3.5471829 3.4431295,3.4131825 3.2251547,3.1121629 2.9406908,4.2376073 3.1562179,4.7879594 3.4293155,5.4822182 Z"
     style="display:inline;opacity:0.201;fill:#000000;fill-rule:evenodd;stroke:none;stroke-width:0.0238404;stroke-dasharray:none;stroke-opacity:1" />
  <circle
     style="opacity:0.215;fill:none;fill-rule:evenodd;stroke:#000000;stroke-width:0.609408;stroke-dasharray:none;stroke-opacity:1"
     id="path1"
     cx="4.7087002"
     cy="4.7896557"
     r="4.403996" />
</svg>
